<svg width="20" height="20" viewBox="0 0 20 20" fill="none" xmlns="http://www.w3.org/2000/svg">
<path d="M10.8066 15.6621V16.1504H4.69336V15.6621H10.8066ZM2.17871 14.2559C2.37441 14.8816 2.8685 15.3745 3.49414 15.5703V16.0742C2.59917 15.853 1.89698 15.1508 1.67578 14.2559H2.17871ZM13.8242 14.2559C13.603 15.1508 12.9008 15.853 12.0059 16.0742V15.5703C12.6315 15.3745 13.1256 14.8816 13.3213 14.2559H13.8242ZM16.7129 13.6309V14.1992L15.0996 13.2305V12.6631L16.7129 13.6309ZM18.4004 13.2432L17.9121 12.9502V7.04883L18.4004 6.75586V13.2432ZM2.08789 6.94336V13.0566H1.59961V6.94336H2.08789ZM13.4121 9.09277C13.5678 9.15357 13.7328 9.18694 13.9004 9.19141V10.8076C13.7329 10.8121 13.5677 10.8455 13.4121 10.9062V9.09277ZM16.7129 6.36816L15.0996 7.33594V6.76855L16.7129 5.80078V6.36816ZM12.0059 3.9248C12.9009 4.14594 13.603 4.8491 13.8242 5.74414H13.3213C13.1256 5.11837 12.6316 4.62444 12.0059 4.42871V3.9248ZM3.49414 4.42871C2.86837 4.62444 2.37444 5.11837 2.17871 5.74414H1.67578C1.897 4.8491 2.59907 4.14594 3.49414 3.9248V4.42871ZM10.8066 3.84961V4.33789H4.69336V3.84961H10.8066Z" stroke="#19213D" stroke-width="1.2"/>
</svg>
